<?xml version="1.0" encoding="UTF-8" standalone="no"?>
<svg
   xmlns:dc="http://purl.org/dc/elements/1.1/"
   xmlns:cc="http://creativecommons.org/ns#"
   xmlns:rdf="http://www.w3.org/1999/02/22-rdf-syntax-ns#"
   xmlns:svg="http://www.w3.org/2000/svg"
   xmlns="http://www.w3.org/2000/svg"
   xmlns:xlink="http://www.w3.org/1999/xlink"
   xmlns:sodipodi="http://sodipodi.sourceforge.net/DTD/sodipodi-0.dtd"
   xmlns:inkscape="http://www.inkscape.org/namespaces/inkscape"
   width="566"
   height="566"
   viewBox="0 0 566 566"
   version="1.1"
   id="svg34"
   sodipodi:docname="icon.svg"
   inkscape:version="1.0.2 (e86c870879, 2021-01-15)">
  <metadata
     id="metadata38">
    <rdf:RDF>
      <cc:Work
         rdf:about="">
        <dc:format>image/svg+xml</dc:format>
        <dc:type
           rdf:resource="http://purl.org/dc/dcmitype/StillImage" />
        <dc:title>Logo </dc:title>
      </cc:Work>
    </rdf:RDF>
  </metadata>
  <sodipodi:namedview
     pagecolor="#ffffff"
     bordercolor="#666666"
     borderopacity="1"
     objecttolerance="10"
     gridtolerance="10"
     guidetolerance="10"
     inkscape:pageopacity="0"
     inkscape:pageshadow="2"
     inkscape:window-width="1024"
     inkscape:window-height="694"
     id="namedview36"
     showgrid="false"
     fit-margin-top="0"
     fit-margin-left="0"
     fit-margin-right="0"
     fit-margin-bottom="0"
     inkscape:zoom="0.23449921"
     inkscape:cx="467.04653"
     inkscape:cy="437.90648"
     inkscape:window-x="0"
     inkscape:window-y="25"
     inkscape:window-maximized="1"
     inkscape:current-layer="Atom/Logos/Logo/Complete/Colored" />
  <!-- Generator: Sketch 60.1 (88133) - https://sketch.com -->
  <title
     id="title2">Logo </title>
  <desc
     id="desc4">Created with Sketch.</desc>
  <defs
     id="defs13">
    <linearGradient
       x1="-0.12398206"
       y1="-0.10478422"
       x2="0.85518813"
       y2="0.9922564"
       id="linearGradient-1">
      <stop
         stop-color="#6590FF"
         offset="0%"
         id="stop6" />
      <stop
         stop-color="#4DC9E2"
         offset="50.707348%"
         id="stop8" />
      <stop
         stop-color="#35FFC6"
         offset="100%"
         id="stop10" />
    </linearGradient>
    <linearGradient
       inkscape:collect="always"
       xlink:href="#linearGradient-1"
       id="linearGradient863"
       x1="-67.948814"
       y1="-57.093765"
       x2="468.68896"
       y2="544.14331"
       gradientTransform="scale(1.0296053,0.97124595)"
       gradientUnits="userSpaceOnUse" />
    <linearGradient
       inkscape:collect="always"
       xlink:href="#linearGradient-1"
       id="linearGradient865"
       x1="-67.948814"
       y1="-57.093765"
       x2="468.68896"
       y2="544.14331"
       gradientTransform="scale(1.0296053,0.97124595)"
       gradientUnits="userSpaceOnUse" />
  </defs>
  <g
     id="Logo-"
     stroke="none"
     stroke-width="1"
     fill="none"
     fill-rule="evenodd"
     transform="translate(0,-0.32401409)">
    <g
       id="Atom/Logos/Logo/Complete/Colored"
       fill-rule="nonzero">
      <g
         id="Atom/Logos/Logo/Mark/Colored"
         fill="url(#linearGradient-1)"
         style="fill:url(#linearGradient865)"
         transform="translate(0.86054,16.852572)">
        <path
           d="m 213.75081,226.38035 c 9.25158,0 16.74778,7.49754 16.74778,16.74324 0,9.25324 -7.4962,16.75078 -16.74778,16.75078 h -27.90544 c -9.23652,0 -16.74025,7.5126 -16.74025,16.74324 v 208.04718 l 48.54823,-32.19796 c 2.74232,-1.82352 5.95928,-2.79556 9.25158,-2.79556 h 115.22293 c 9.22898,0 16.74024,-7.51261 16.74024,-16.74324 v -80.90557 c 0,-9.2457 7.4962,-16.75077 16.74025,-16.75077 9.25159,0 16.74778,7.50507 16.74778,16.75077 v 80.90557 c 0,27.69943 -22.53379,50.23725 -50.22827,50.23725 H 231.95262 l -70.33616,46.66556 c -2.79506,1.84613 -6.02709,2.78803 -9.25912,2.78803 -2.71972,0 -5.43945,-0.66309 -7.91809,-1.98929 -5.43192,-2.92367 -8.82969,-8.59014 -8.82969,-14.76148 V 276.61761 c 0,-27.69944 22.54132,-50.23726 50.23581,-50.23726 z M 212.80907,83.211338 c 8.75435,0 16.74025,6.299437 17.60664,15.010141 1.00954,10.029361 -6.84075,18.483871 -16.64984,18.483871 H 50.228275 c -9.244052,0 -16.732713,7.49754 -16.732713,16.74324 v 208.04718 l 32.327812,-21.44521 c 8.535869,-5.66647 20.107885,-2.40373 24.439857,6.87965 3.495713,7.51261 0.971869,16.44937 -5.929151,21.03078 L 26.0069,386.6543 c -2.795063,1.85366 -6.027091,2.78802 -9.259119,2.78802 -2.719725,0 -5.431916,-0.65556 -7.9180918,-1.98929 C 3.3977729,384.5369 0,378.86289 0,372.69909 V 133.44859 C 0,105.70394 22.496119,83.211338 50.228275,83.211338 Z M 514.04311,0.32401409 c 27.70202,0 50.23581,22.53781691 50.23581,50.23725391 V 324.97106 c 0,6.17133 -3.39024,11.83781 -8.82215,14.75394 -2.49371,1.33373 -5.20591,1.99683 -7.92563,1.99683 -3.23203,0 -6.45652,-0.9419 -9.25159,-2.79556 L 458.33018,285.89345 H 328.98126 c -27.68695,0 -50.22827,-22.53782 -50.22827,-50.24479 V 50.561268 c 0,-27.699437 22.54132,-50.23725391 50.22827,-50.23725391 z m 0,33.49401391 H 328.98126 c -9.22145,0 -16.73271,7.512606 -16.73271,16.74324 V 235.64866 c 0,9.23817 7.51126,16.75078 16.73271,16.75078 h 134.39661 c 3.2923,0 6.50926,0.97204 9.25159,2.79556 l 58.16143,38.57275 V 50.561268 c 0,-9.230634 -7.51126,-16.74324 -16.74778,-16.74324 z"
           id="Combined-Shape"
           style="fill:url(#linearGradient863)" />
      </g>
    </g>
  </g>
</svg>
